<mxfile host="app.diagrams.net" agent="Mozilla/5.0 (Windows NT 10.0; Win64; x64) AppleWebKit/537.36 (KHTML, like Gecko) Chrome/135.0.0.0 Safari/537.36" version="26.2.14">
  <diagram name="Page-1" id="SEcAZ6cE2XpohCDjyKS4">
    <mxGraphModel dx="1489" dy="753" grid="1" gridSize="10" guides="1" tooltips="1" connect="1" arrows="1" fold="1" page="1" pageScale="1" pageWidth="827" pageHeight="1169" math="0" shadow="0">
      <root>
        <mxCell id="0" />
        <mxCell id="1" parent="0" />
        <mxCell id="4uzUeKD5KEeoXZwPJctU-22" style="edgeStyle=orthogonalEdgeStyle;rounded=0;orthogonalLoop=1;jettySize=auto;html=1;" edge="1" parent="1" source="4uzUeKD5KEeoXZwPJctU-1" target="4uzUeKD5KEeoXZwPJctU-15">
          <mxGeometry relative="1" as="geometry" />
        </mxCell>
        <mxCell id="4uzUeKD5KEeoXZwPJctU-1" value="Customer" style="shape=umlActor;verticalLabelPosition=bottom;verticalAlign=top;html=1;outlineConnect=0;" vertex="1" parent="1">
          <mxGeometry x="140" y="213" width="50" height="80" as="geometry" />
        </mxCell>
        <mxCell id="4uzUeKD5KEeoXZwPJctU-2" value="" style="swimlane;startSize=0;direction=south;rotation=-180;" vertex="1" parent="1">
          <mxGeometry x="278" y="46" width="270" height="487" as="geometry" />
        </mxCell>
        <mxCell id="4uzUeKD5KEeoXZwPJctU-33" style="edgeStyle=orthogonalEdgeStyle;rounded=0;orthogonalLoop=1;jettySize=auto;html=1;exitX=1;exitY=0.5;exitDx=0;exitDy=0;" edge="1" parent="4uzUeKD5KEeoXZwPJctU-2" source="4uzUeKD5KEeoXZwPJctU-11">
          <mxGeometry relative="1" as="geometry">
            <mxPoint x="-108" y="274" as="targetPoint" />
          </mxGeometry>
        </mxCell>
        <mxCell id="4uzUeKD5KEeoXZwPJctU-11" value="" style="ellipse;whiteSpace=wrap;html=1;rotation=-180;" vertex="1" parent="4uzUeKD5KEeoXZwPJctU-2">
          <mxGeometry x="75" y="367" width="120" height="80" as="geometry" />
        </mxCell>
        <mxCell id="4uzUeKD5KEeoXZwPJctU-14" value="" style="ellipse;whiteSpace=wrap;html=1;rotation=-180;" vertex="1" parent="4uzUeKD5KEeoXZwPJctU-2">
          <mxGeometry x="74" y="267" width="120" height="80" as="geometry" />
        </mxCell>
        <mxCell id="4uzUeKD5KEeoXZwPJctU-15" value="" style="ellipse;whiteSpace=wrap;html=1;rotation=-180;" vertex="1" parent="4uzUeKD5KEeoXZwPJctU-2">
          <mxGeometry x="76" y="167" width="120" height="80" as="geometry" />
        </mxCell>
        <mxCell id="4uzUeKD5KEeoXZwPJctU-16" value="" style="ellipse;whiteSpace=wrap;html=1;rotation=-180;" vertex="1" parent="4uzUeKD5KEeoXZwPJctU-2">
          <mxGeometry x="75" y="67" width="120" height="80" as="geometry" />
        </mxCell>
        <mxCell id="4uzUeKD5KEeoXZwPJctU-17" value="Smart Food Ordering Systerm" style="text;html=1;align=center;verticalAlign=middle;whiteSpace=wrap;rounded=0;" vertex="1" parent="4uzUeKD5KEeoXZwPJctU-2">
          <mxGeometry x="51" y="15" width="170" height="30" as="geometry" />
        </mxCell>
        <mxCell id="4uzUeKD5KEeoXZwPJctU-18" value="Upload Menu" style="text;html=1;align=center;verticalAlign=middle;whiteSpace=wrap;rounded=0;" vertex="1" parent="4uzUeKD5KEeoXZwPJctU-2">
          <mxGeometry x="104" y="92" width="60" height="30" as="geometry" />
        </mxCell>
        <mxCell id="4uzUeKD5KEeoXZwPJctU-19" value="View Menu" style="text;html=1;align=center;verticalAlign=middle;whiteSpace=wrap;rounded=0;" vertex="1" parent="4uzUeKD5KEeoXZwPJctU-2">
          <mxGeometry x="106" y="192" width="60" height="30" as="geometry" />
        </mxCell>
        <mxCell id="4uzUeKD5KEeoXZwPJctU-20" value="Place Order" style="text;html=1;align=center;verticalAlign=middle;whiteSpace=wrap;rounded=0;" vertex="1" parent="4uzUeKD5KEeoXZwPJctU-2">
          <mxGeometry x="106" y="292" width="60" height="30" as="geometry" />
        </mxCell>
        <mxCell id="4uzUeKD5KEeoXZwPJctU-21" value="Receive Notifications" style="text;html=1;align=center;verticalAlign=middle;whiteSpace=wrap;rounded=0;" vertex="1" parent="4uzUeKD5KEeoXZwPJctU-2">
          <mxGeometry x="106" y="392" width="60" height="30" as="geometry" />
        </mxCell>
        <mxCell id="4uzUeKD5KEeoXZwPJctU-3" value="Restaurant Owner" style="shape=umlActor;verticalLabelPosition=bottom;verticalAlign=top;html=1;outlineConnect=0;textShadow=1;" vertex="1" parent="1">
          <mxGeometry x="650" y="213" width="50" height="80" as="geometry" />
        </mxCell>
        <mxCell id="4uzUeKD5KEeoXZwPJctU-30" value="" style="endArrow=classic;html=1;rounded=0;entryX=0;entryY=0.25;entryDx=0;entryDy=0;" edge="1" parent="1" source="4uzUeKD5KEeoXZwPJctU-1" target="4uzUeKD5KEeoXZwPJctU-20">
          <mxGeometry width="50" height="50" relative="1" as="geometry">
            <mxPoint x="360" y="340" as="sourcePoint" />
            <mxPoint x="410" y="290" as="targetPoint" />
          </mxGeometry>
        </mxCell>
        <mxCell id="4uzUeKD5KEeoXZwPJctU-31" value="" style="endArrow=classic;html=1;rounded=0;entryX=0.049;entryY=0.195;entryDx=0;entryDy=0;entryPerimeter=0;" edge="1" parent="1" source="4uzUeKD5KEeoXZwPJctU-3" target="4uzUeKD5KEeoXZwPJctU-16">
          <mxGeometry width="50" height="50" relative="1" as="geometry">
            <mxPoint x="360" y="340" as="sourcePoint" />
            <mxPoint x="410" y="290" as="targetPoint" />
          </mxGeometry>
        </mxCell>
        <mxCell id="4uzUeKD5KEeoXZwPJctU-32" value="" style="endArrow=classic;html=1;rounded=0;" edge="1" parent="1">
          <mxGeometry width="50" height="50" relative="1" as="geometry">
            <mxPoint x="360" y="340" as="sourcePoint" />
            <mxPoint x="410" y="290" as="targetPoint" />
          </mxGeometry>
        </mxCell>
        <mxCell id="4uzUeKD5KEeoXZwPJctU-34" style="edgeStyle=orthogonalEdgeStyle;rounded=0;orthogonalLoop=1;jettySize=auto;html=1;exitX=0;exitY=0.5;exitDx=0;exitDy=0;" edge="1" parent="1" source="4uzUeKD5KEeoXZwPJctU-11">
          <mxGeometry relative="1" as="geometry">
            <mxPoint x="680" y="330" as="targetPoint" />
            <Array as="points">
              <mxPoint x="680" y="453" />
            </Array>
          </mxGeometry>
        </mxCell>
      </root>
    </mxGraphModel>
  </diagram>
</mxfile>
